<svg version="1.1" xmlns="http://www.w3.org/2000/svg" viewBox="-298.2 -1513.2 8240.86312940913 2324.4"><desc>Created with Snap</desc><defs></defs><g><g transform="matrix(18.3465,0,0,18.3465,5879.5235,-1276.5055)"><path d="M83.516,20.963c7.563,8.08,12.194,18.943,12.194,30.883c0,24.959-20.234,45.203-45.193,45.203S5.324,76.834,5.324,51.876  c0-7.598,1.875-14.716,5.186-21l0.003,0.057c-0.164,1.22-0.249,2.492-0.249,3.757c0,6.928,2.537,14.309,6.731,18.309h-0.002  c-1.646-4-2.552-8.408-2.552-13.015C14.442,26.331,22.404,14,33.938,9h-0.001c-6.814,5-11.14,14.207-11.14,23.839  c0,17.386,14.095,31.247,31.482,31.247c17.388,0,31.483-14.073,31.483-31.459c0-4.13-0.795-8.062-2.241-11.675 M81.446,28.881  C80.176,40.423,70.393,49.4,58.514,49.4c-12.742,0-23.071-10.329-23.071-23.07c0-10.96,7.643-20.136,17.891-22.487l-0.05,0.01  c-14.73,0.465-26.529,12.554-26.529,27.398c0,15.138,12.271,27.409,27.409,27.409c15.14,0,27.412-12.271,27.412-27.409  c0-0.844-0.039-1.678-0.113-2.502 M42.731,34.483c3.032,6.443,9.582,10.91,17.175,10.91c10.478,0,18.972-8.133,18.972-18.609  c0-1.788-0.247-2.784-0.711-4.784h0.003c-2.626,9-11.665,16.854-22.41,16.854c-4.8,0-9.259-1.663-12.958-4.162" fill="#6daedb" style=""></path><desc>Created with Snap</desc><defs></defs></g><g><g transform="matrix(1,0,0,-1,0,0)"><path d="M429 327L426 516Q426 561 428 595Q431 630 443 630L510 630Q510 614 513 568Q516 522 517 475Q518 429 518 396Q518 363 517 310Q516 258 507 195Q486 50 427 16Q382 -9 284 4Q185 18 110 62Q22 113 9 182Q9 205 24 222Q51 254 73 254Q74 197 104 160Q174 76 329 76Q355 76 380 79Q429 105 429 327ZM665 167L669 94Q669 88 668 72Q668 56 656 43Q645 31 628 31Q612 31 603 32Q570 32 570 61Q570 85 592 254Q614 424 620 473Q626 522 630 555Q635 589 637 605Q639 621 643 637Q647 653 655 663Q670 682 713 682Q785 646 861 478Q915 358 933 326Q951 294 968 282L1168 630Q1189 645 1200 645Q1232 645 1249 616Q1266 587 1277 545Q1289 504 1297 454Q1306 404 1312 349Q1319 295 1325 243Q1339 118 1346 86Q1354 54 1354 40Q1354 27 1345 14Q1336 2 1320 2Q1304 2 1288 14Q1272 27 1268 45Q1265 64 1261 94Q1258 124 1253 161Q1248 199 1243 240Q1238 282 1233 320Q1228 358 1224 387Q1220 417 1218 432Q1218 452 1217 469Q1216 486 1209 490Q1202 494 1187 480Q1173 467 1147 426Q1091 339 985 133Q971 108 948 122Q921 137 902 199L718 590Q694 542 674 272Q671 239 670 216Q665 191 665 167ZM1809 166Q1734 48 1609 20Q1580 14 1556 14Q1533 14 1517 14Q1502 15 1483 19Q1464 23 1448 32Q1411 53 1411 91Q1407 109 1407 131Q1407 154 1417 191Q1427 228 1453 271Q1480 314 1518 350Q1597 426 1689 448Q1716 454 1738 454Q1761 454 1779 451Q1837 451 1857 372Q1870 322 1872 232Q1875 143 1877 94Q1880 46 1890 6L1831 6Q1827 33 1825 54Q1823 75 1821 93Q1816 135 1809 166ZM1805 321Q1805 379 1748 379Q1741 380 1734 380Q1661 380 1580 310Q1542 278 1515 238Q1475 181 1475 136Q1475 77 1543 66Q1633 68 1715 148Q1750 183 1773 224Q1805 279 1805 321ZM2428 365Q2386 395 2320 395Q2258 395 2205 372Q2105 330 2068 264Q2052 234 2052 200Q2052 194 2052 166Q2052 139 2062 92Q2072 46 2072 -2Q2051 -3 2038 -7Q2025 -11 2016 -11Q2007 -11 2000 -3Q1994 5 1986 28Q1985 34 1982 62Q1979 90 1974 130Q1970 170 1964 217Q1959 265 1954 311Q1943 411 1937 458Q1937 482 1972 482Q1993 482 2005 464Q2017 447 2024 424Q2031 402 2033 380Q2036 358 2038 349Q2170 467 2366 467Q2388 467 2412 466Q2418 467 2427 467Q2436 467 2445 455Q2456 441 2456 421Q2456 371 2428 365ZM2601 182L2606 95Q2606 15 2568 -2Q2560 -5 2549 -5Q2538 -5 2523 0L2524 374Q2524 455 2514 536Q2505 618 2505 699Q2505 731 2539 731L2547 731Q2554 731 2556 730Q2571 668 2576 580Q2587 385 2596 318Q2613 327 2672 369Q2731 411 2767 436Q2803 462 2835 484Q2910 533 2929 533Q2945 533 2954 514Q2904 451 2793 374Q2748 343 2703 312Q2659 282 2622 249Q2689 231 2749 211Q2809 192 2865 176Q2994 138 3087 133Q3087 106 3082 98Q3073 84 3045 82L3037 82Q2976 99 2875 120Q2676 161 2601 182ZM3335 70Q3423 70 3600 150Q3611 150 3618 142Q3625 135 3625 125Q3585 57 3472 19Q3359 -19 3261 6Q3150 35 3126 131Q3124 150 3124 182Q3124 214 3140 266Q3157 319 3197 366Q3237 413 3291 440Q3345 467 3406 467Q3464 467 3536 427Q3570 408 3590 384Q3610 360 3610 335Q3610 328 3609 321Q3607 260 3550 244Q3525 237 3492 237L3348 243Q3276 243 3238 212Q3216 195 3207 161Q3232 70 3335 70ZM3513 379Q3491 395 3467 402Q3443 409 3427 409Q3411 409 3375 398Q3339 388 3311 375Q3242 343 3242 308Q3322 301 3362 301Q3473 301 3512 320Q3536 330 3536 345Q3536 363 3513 379ZM3836 96L3838 256Q3838 294 3831 321L3676 321L3674 390L3824 390L3824 648Q3827 657 3836 666Q3850 680 3859 680Q3869 680 3876 678Q3883 676 3891 664Q3907 598 3907 465Q3907 432 3910 400Q3942 404 3974 404Q3974 404 4026 404Q4045 404 4061 406L4058 334L3912 338L3917 -7Q3899 -15 3886 -15Q3836 -15 3836 96ZM4303 70Q4391 70 4568 150Q4579 150 4586 142Q4593 135 4593 125Q4553 57 4440 19Q4327 -19 4229 6Q4118 35 4094 131Q4092 150 4092 182Q4092 214 4108 266Q4125 319 4165 366Q4205 413 4259 440Q4313 467 4374 467Q4432 467 4504 427Q4538 408 4558 384Q4578 360 4578 335Q4578 328 4577 321Q4575 260 4518 244Q4493 237 4460 237L4316 243Q4244 243 4206 212Q4184 195 4175 161Q4200 70 4303 70ZM4481 379Q4459 395 4435 402Q4411 409 4395 409Q4379 409 4343 398Q4307 388 4279 375Q4210 343 4210 308Q4290 301 4330 301Q4441 301 4480 320Q4504 330 4504 345Q4504 363 4481 379ZM5144 365Q5102 395 5036 395Q4974 395 4921 372Q4821 330 4784 264Q4768 234 4768 200Q4768 194 4768 166Q4768 139 4778 92Q4788 46 4788 -2Q4767 -3 4754 -7Q4741 -11 4732 -11Q4723 -11 4716 -3Q4710 5 4702 28Q4701 34 4698 62Q4695 90 4690 130Q4686 170 4680 217Q4675 265 4670 311Q4659 411 4653 458Q4653 482 4688 482Q4709 482 4721 464Q4733 447 4740 424Q4747 402 4749 380Q4752 358 4754 349Q4886 467 5082 467Q5104 467 5128 466Q5134 467 5143 467Q5152 467 5161 455Q5172 441 5172 421Q5172 371 5144 365ZM5560 258Q5670 258 5670 202Q5670 160 5609 104Q5518 21 5364 -29Q5357 -29 5348 -15Q5340 -1 5335 6Q5331 14 5329 16Q5444 54 5518 108Q5568 144 5568 167Q5568 190 5509 190Q5450 190 5336 162Q5284 164 5246 199Q5213 230 5213 261Q5213 293 5231 319Q5249 346 5279 369Q5309 392 5349 411Q5447 458 5552 458Q5583 458 5612 452Q5636 452 5640 431Q5644 410 5644 362Q5585 389 5511 389Q5419 389 5359 352Q5297 316 5295 258Q5295 230 5336 230L5409 238Q5503 258 5560 258Z" fill="#173753" style=""></path></g></g></g></svg>